<svg width="22" height="22" viewBox="0 0 22 22" fill="none" xmlns="http://www.w3.org/2000/svg">
<path fill-rule="evenodd" clip-rule="evenodd" d="M11 0.399994C4.99997 0.399994 0.133301 5.26666 0.133301 11.2667C0.133301 16.0667 3.26663 20.1333 7.5333 21.6C8.06663 21.6667 8.26663 21.3333 8.26663 21.0667C8.26663 20.8 8.26663 20.1333 8.26663 19.2C5.26663 19.8667 4.59997 17.7333 4.59997 17.7333C4.1333 16.4667 3.39997 16.1333 3.39997 16.1333C2.39997 15.4667 3.46663 15.4667 3.46663 15.4667C4.5333 15.5333 5.1333 16.6 5.1333 16.6C6.1333 18.2667 7.66663 17.8 8.26663 17.5333C8.3333 16.8 8.66663 16.3333 8.9333 16.0667C6.5333 15.8 3.99997 14.8667 3.99997 10.6667C3.99997 9.46666 4.39997 8.53333 5.1333 7.73333C4.99997 7.46666 4.66663 6.33333 5.26663 4.86666C5.26663 4.86666 6.19997 4.59999 8.26663 5.99999C9.1333 5.73333 10.0666 5.66666 11 5.66666C11.9333 5.66666 12.8666 5.79999 13.7333 5.99999C15.8 4.59999 16.7333 4.86666 16.7333 4.86666C17.3333 6.33333 16.9333 7.46666 16.8666 7.73333C17.5333 8.46666 18 9.46666 18 10.6667C18 14.8667 15.4666 15.7333 13.0666 16C13.4666 16.3333 13.8 17 13.8 18C13.8 19.4667 13.8 20.6 13.8 21C13.8 21.2667 14 21.6 14.5333 21.5333C18.8666 20.0667 21.9333 16 21.9333 11.2C21.8666 5.26666 17 0.399994 11 0.399994Z" fill="#2F3133"/>
</svg>
